<mxfile host="65bd71144e">
    <diagram id="kXLDlqbF8lXHWL131Ab7" name="Page-1">
        <mxGraphModel dx="1032" dy="498" grid="1" gridSize="10" guides="1" tooltips="1" connect="1" arrows="1" fold="1" page="1" pageScale="1" pageWidth="850" pageHeight="1100" math="0" shadow="0">
            <root>
                <mxCell id="0"/>
                <mxCell id="1" parent="0"/>
                <mxCell id="2" value="" style="rounded=0;whiteSpace=wrap;html=1;" vertex="1" parent="1">
                    <mxGeometry x="10" y="10" width="830" height="30" as="geometry"/>
                </mxCell>
                <mxCell id="3" value="Text" style="text;html=1;strokeColor=none;fillColor=none;align=center;verticalAlign=middle;whiteSpace=wrap;rounded=0;" vertex="1" parent="1">
                    <mxGeometry x="390" y="240" width="60" height="30" as="geometry"/>
                </mxCell>
                <mxCell id="4" value="Header/NavBAR" style="text;html=1;strokeColor=none;fillColor=none;align=center;verticalAlign=middle;whiteSpace=wrap;rounded=0;" vertex="1" parent="1">
                    <mxGeometry x="395" y="10" width="60" height="30" as="geometry"/>
                </mxCell>
                <mxCell id="5" value="LINKS" style="rounded=0;whiteSpace=wrap;html=1;" vertex="1" parent="1">
                    <mxGeometry x="640" y="15" width="190" height="20" as="geometry"/>
                </mxCell>
                <mxCell id="6" value="LEFT COLUMN" style="rounded=0;whiteSpace=wrap;html=1;rotation=90;" vertex="1" parent="1">
                    <mxGeometry x="-75" y="155" width="390" height="200" as="geometry"/>
                </mxCell>
                <mxCell id="7" value="RIGHT COLUMN" style="rounded=0;whiteSpace=wrap;html=1;" vertex="1" parent="1">
                    <mxGeometry x="640" y="60" width="190" height="390" as="geometry"/>
                </mxCell>
                <mxCell id="8" value="MAIN VIEW" style="rounded=0;whiteSpace=wrap;html=1;" vertex="1" parent="1">
                    <mxGeometry x="240" y="60" width="380" height="390" as="geometry"/>
                </mxCell>
                <mxCell id="9" value="FOOTER" style="rounded=0;whiteSpace=wrap;html=1;" vertex="1" parent="1">
                    <mxGeometry x="20" y="460" width="810" height="40" as="geometry"/>
                </mxCell>
            </root>
        </mxGraphModel>
    </diagram>
</mxfile>